<svg xmlns="http://www.w3.org/2000/svg" xmlns:xlink="http://www.w3.org/1999/xlink" viewBox="0 0 985 1216"><defs><style>.cls-1,.cls-3{fill:none;}.cls-2{clip-path:url(#clip-path);}.cls-3{stroke:#000;stroke-width:0.3px;}.cls-4{fill:#ff0001;}.cls-5{fill:#fff;}</style><clipPath id="clip-path" transform="translate(263.67 164.22)"><circle class="cls-1" cx="68.87" cy="68.87" r="68.87"/></clipPath></defs><title>Recurso 3</title><g id="Capa_2" data-name="Capa 2"><g id="Capa_1-2" data-name="Capa 1"><g class="cls-2"><image width="769" height="1000" transform="translate(108 108)" xlink:href="pokedex.jpg"/><line class="cls-3" x1="108" y1="54" x2="108" y2="90"/><line class="cls-3" x1="54" y1="108" x2="90" y2="108"/><line class="cls-3" x1="54" y1="1108" x2="90" y2="1108"/><line class="cls-3" x1="108" y1="1162" x2="108" y2="1126"/><line class="cls-3" x1="877" y1="54" x2="877" y2="90"/><line class="cls-3" x1="931" y1="108" x2="895" y2="108"/><line class="cls-3" x1="931" y1="1108" x2="895" y2="1108"/><line class="cls-3" x1="877" y1="1162" x2="877" y2="1126"/><line class="cls-3" x1="54" x2="54" y2="36"/><line class="cls-3" y1="54" x2="36" y2="54"/><line class="cls-3" y1="1162" x2="36" y2="1162"/><line class="cls-3" x1="54" y1="1216" x2="54" y2="1180"/><line class="cls-3" x1="931" x2="931" y2="36"/><line class="cls-3" x1="985" y1="54" x2="949" y2="54"/><line class="cls-3" x1="985" y1="1162" x2="949" y2="1162"/><line class="cls-3" x1="931" y1="1216" x2="931" y2="1180"/></g><path class="cls-4" d="M102,96.11,81.63,75.7a25.33,25.33,0,0,0,4.62-12.56h-8.5a16.91,16.91,0,0,1-33.55,0H35.71A25.3,25.3,0,0,0,75.65,81.69l20.4,20.4Z" transform="translate(263.67 164.22)"/><path class="cls-5" d="M86.25,58.92h-8.5a16.9,16.9,0,0,0-33.54,0h-8.5a25.36,25.36,0,0,1,50.54,0Z" transform="translate(263.67 164.22)"/><circle class="cls-5" cx="323.56" cy="225.49" r="5.48"/></g></g></svg>